<svg width="1024" height="1024" viewBox="0 0 1024 1024" fill="none" xmlns="http://www.w3.org/2000/svg">
<path d="M307.441 717.559C359.469 769.336 431.041 801.493 510.124 801.994L512 802L512 1024L508.689 1023.99C368.871 1023.1 242.351 966.175 150.462 874.537L307.441 717.559ZM873.537 874.537C782.018 965.805 656.147 1022.64 517 1023.97L517 801.956C594.843 800.64 665.216 768.653 716.559 717.559L873.537 874.537ZM1024 512C1024 651.841 967.935 778.585 877.06 870.988L720.072 714.001C770.375 662.197 801.502 591.671 801.994 513.875L802 512L1024 512ZM222 512C222 590.537 253.22 661.781 303.926 714.001L146.94 870.988C56.782 779.316 0.888305 653.841 0.0108323 515.312L8.95209e-05 512L222 512ZM306.44 307.441C255.346 358.783 223.36 429.157 222.044 507L0.0264558 507C1.35761 367.853 58.1938 241.981 149.462 150.462L306.44 307.441ZM874.536 150.463C965.805 241.982 1022.64 367.852 1023.97 507L801.956 507C800.64 429.157 768.653 358.783 717.559 307.441L874.536 150.463ZM517 0.0265209C654.86 1.34542 779.688 57.1483 870.988 146.94L714.001 303.926C662.891 254.299 593.558 223.337 517 222.043L517 0.0265209ZM512 222C433.463 222 362.218 253.22 309.997 303.926L153.011 146.94C245.414 56.0639 372.159 0.000179071 512 0.00015462L512 222Z" fill="url(#paint0_linear_437_29)"/>
<g filter="url(#filter0_d_437_29)">
<ellipse cx="511.508" cy="511.522" rx="351.508" ry="351.522" fill="url(#paint1_linear_437_29)"/>
</g>
<defs>
<filter id="filter0_d_437_29" x="156" y="156" width="711.015" height="711.044" filterUnits="userSpaceOnUse" color-interpolation-filters="sRGB">
<feFlood flood-opacity="0" result="BackgroundImageFix"/>
<feColorMatrix in="SourceAlpha" type="matrix" values="0 0 0 0 0 0 0 0 0 0 0 0 0 0 0 0 0 0 127 0" result="hardAlpha"/>
<feOffset/>
<feGaussianBlur stdDeviation="2"/>
<feComposite in2="hardAlpha" operator="out"/>
<feColorMatrix type="matrix" values="0 0 0 0 0 0 0 0 0 0 0 0 0 0 0 0 0 0 0.25 0"/>
<feBlend mode="normal" in2="BackgroundImageFix" result="effect1_dropShadow_437_29"/>
<feBlend mode="normal" in="SourceGraphic" in2="effect1_dropShadow_437_29" result="shape"/>
</filter>
<linearGradient id="paint0_linear_437_29" x1="1023.96" y1="512" x2="8.95208e-05" y2="512" gradientUnits="userSpaceOnUse">
<stop stop-color="#FFF716"/>
<stop offset="1" stop-color="#0030EF"/>
</linearGradient>
<linearGradient id="paint1_linear_437_29" x1="863" y1="509.5" x2="160" y2="509.5" gradientUnits="userSpaceOnUse">
<stop stop-color="#EAEAEA"/>
<stop offset="1" stop-color="#848484"/>
</linearGradient>
</defs>
</svg>
